<svg version="1.1" id="shorter" xmlns="http://www.w3.org/2000/svg" xmlns:xlink="http://www.w3.org/1999/xlink" x="0px" y="0px"
	 width="1043px" height="1741.5px" viewBox="0 0 1043 1741.5" enable-background="new 0 0 1043 1741.5" xml:space="preserve">
<path fill="#454545" d="M882,184.75c0,0,10.028-2.957,21.532-14.46s60.374-60.259,89.874-89.759S1017-9.5,981-9.5v0.2
	c27,0,33.042,29.192,19.71,42.524c-8.582,8.582-94.668,95.743-94.668,95.743S887.419,152,858,152s-455.416,0-455.416,0
	C176.667,152,1,342.333,1,550c0,200.334,0,604,0,797s253.25,404.5,375.25,404.5c21,0,47.709-21.166,47.709-21.166
	c20.166-20.167,119.271-119.834,119.271-119.834C564.146,1589.584,562,1564,562,1564v-173v1.125l-14,164.938
	c0,0-0.25,7.594-5.375,12.719c-3.52,3.52-58.471,61.682-99.229,100.551C424.802,1688.065,412,1705.75,401,1705.75V1491
	c0-10.75,0-330.25,0-355.75s26-23.25,26-23.25s162,0,189,0s47.334-21.916,47.334-21.916
	c20.166-20.167,119.083-120.209,119.083-120.209C803.334,948.959,801,923,801,923V750l-12.625,165.062c0,0-0.438,7.594-5.562,12.719
	c-3.52,3.52-58.564,61.682-99.323,100.551C664.896,1046.065,652,1063.75,641,1063.75c0-20.083,0-318.75,0-318.75v-0.25
	c0,0,10.028-2.957,21.532-14.46s60.374-60.259,89.874-89.759S776,550.5,740,550.5v0.063c29,0,30.875,30.343,18,43.218
	s-97.375,98.484-97.375,98.484S643,712,616,712s-187,0-187,0c-22.583,0-26-21.761-25.5-28.75S423.5,552,563,552s266.334,0,295,0
	s45.562-19.438,45.562-19.438L1025.25,409.75c0,0,17.75-16.5,17.75-45.75s0-174,0-174v0.125L1030.75,354.5c0,0-1.5,8.875-6.625,14
	c-3.52,3.52-58.971,60.963-99.729,99.833C905.802,486.065,893,503.75,882,503.75c0-20.083,0-318.75,0-318.75V184.75z"/> 
</svg>
